<!-- Placeholder vector chassis. Final artwork should preserve this compact 600x800 view box. -->
<svg xmlns="http://www.w3.org/2000/svg" width="600" height="800" viewBox="0 0 600 800" fill="none">
  <defs>
    <linearGradient id="chassis" x1="0" y1="0" x2="0" y2="800" gradientUnits="userSpaceOnUse">
      <stop stop-color="#242522"/>
      <stop offset="0.48" stop-color="#151615"/>
      <stop offset="1" stop-color="#0D0E0D"/>
    </linearGradient>
    <linearGradient id="rail" x1="0" y1="0" x2="600" y2="0" gradientUnits="userSpaceOnUse">
      <stop stop-color="#090A09"/>
      <stop offset="0.5" stop-color="#30312D"/>
      <stop offset="1" stop-color="#090A09"/>
    </linearGradient>
    <linearGradient id="panel" x1="0" y1="0" x2="0" y2="1">
      <stop stop-color="#1B1C1A"/>
      <stop offset="0.5" stop-color="#10110F"/>
      <stop offset="1" stop-color="#171815"/>
    </linearGradient>
    <linearGradient id="bevel" x1="0" y1="0" x2="1" y2="1">
      <stop stop-color="#77766B"/>
      <stop offset="0.25" stop-color="#343530"/>
      <stop offset="1" stop-color="#080908"/>
    </linearGradient>
  </defs>
  <rect width="600" height="800" fill="#090A09"/>
  <rect x="8" y="8" width="584" height="784" rx="5" fill="url(#chassis)" stroke="#55564F" stroke-width="2"/>
  <rect x="18" y="18" width="564" height="59" rx="3" fill="#0C0D0C" stroke="url(#bevel)" stroke-width="2"/>
  <path d="M21 73H579" stroke="#A92722" stroke-width="2"/>
  <rect x="20" y="68" width="560" height="142" rx="4" fill="url(#panel)" stroke="url(#bevel)" stroke-width="2"/>
  <rect x="20" y="216" width="560" height="134" rx="4" fill="url(#panel)" stroke="url(#bevel)" stroke-width="2"/>
  <rect x="20" y="356" width="560" height="94" rx="4" fill="url(#panel)" stroke="url(#bevel)" stroke-width="2"/>
  <rect x="20" y="456" width="560" height="334" rx="4" fill="url(#panel)" stroke="url(#bevel)" stroke-width="2"/>
  <g fill="#080908" stroke="#77766B" stroke-width="1">
    <circle cx="28" cy="76" r="3"/><circle cx="572" cy="76" r="3"/>
    <circle cx="28" cy="202" r="3"/><circle cx="572" cy="202" r="3"/>
    <circle cx="28" cy="224" r="3"/><circle cx="572" cy="224" r="3"/>
    <circle cx="28" cy="342" r="3"/><circle cx="572" cy="342" r="3"/>
    <circle cx="28" cy="364" r="3"/><circle cx="572" cy="364" r="3"/>
    <circle cx="28" cy="442" r="3"/><circle cx="572" cy="442" r="3"/>
    <circle cx="28" cy="464" r="3"/><circle cx="572" cy="464" r="3"/>
    <circle cx="28" cy="782" r="3"/><circle cx="572" cy="782" r="3"/>
  </g>
  <rect x="0" y="0" width="9" height="800" fill="url(#rail)"/>
  <rect x="591" y="0" width="9" height="800" fill="url(#rail)"/>
  <g fill="#090A09" stroke="#77786F">
    <circle cx="17" cy="17" r="4"/><circle cx="583" cy="17" r="4"/>
    <circle cx="17" cy="783" r="4"/><circle cx="583" cy="783" r="4"/>
  </g>
</svg>
